<mxfile host="65bd71144e">
    <diagram id="opsgu1cAS7noyGnm6H2T" name="Page-1">
        <mxGraphModel dx="-806" dy="-2718" grid="1" gridSize="10" guides="1" tooltips="1" connect="1" arrows="1" fold="1" page="1" pageScale="1" pageWidth="850" pageHeight="1100" math="0" shadow="0">
            <root>
                <mxCell id="0"/>
                <mxCell id="1" parent="0"/>
                <mxCell id="2" value="Account" style="swimlane;whiteSpace=wrap;html=1;shadow=0;dashed=0;strokeWidth=1;align=center;verticalAlign=top;fontFamily=Helvetica;fontSize=12;fontColor=#FFFFFF;fillColor=#660000;movable=1;resizable=1;rotatable=1;deletable=1;editable=1;locked=0;connectable=1;strokeColor=#666666;swimlaneFillColor=#FFFFFF;" vertex="1" parent="1">
                    <mxGeometry x="1920" y="3697" width="270" height="200" as="geometry"/>
                </mxCell>
                <mxCell id="3" value="Signed in as user@domain.com" style="rounded=0;whiteSpace=wrap;html=1;shadow=0;dashed=0;strokeWidth=1;align=left;verticalAlign=top;fontFamily=Helvetica;fontSize=12;fontColor=#4D4D4D;fillColor=none;spacingLeft=5;strokeColor=none;spacing=0;spacingTop=-2;" vertex="1" parent="2">
                    <mxGeometry x="30" y="40" width="190" height="15" as="geometry"/>
                </mxCell>
                <mxCell id="4" value="Personal" style="rounded=0;whiteSpace=wrap;html=1;shadow=0;dashed=0;strokeWidth=1;align=left;verticalAlign=top;fontFamily=Helvetica;fontSize=8;fontColor=#4D4D4D;fillColor=none;spacingLeft=5;strokeColor=none;spacing=0;spacingTop=-2;" vertex="1" parent="2">
                    <mxGeometry x="50" y="92.5" width="80" height="15" as="geometry"/>
                </mxCell>
                <mxCell id="5" value="Select an edition" style="text;html=1;align=left;verticalAlign=middle;whiteSpace=wrap;rounded=0;" vertex="1" parent="2">
                    <mxGeometry x="20" y="65" width="150" height="30" as="geometry"/>
                </mxCell>
                <mxCell id="6" value="Educator" style="rounded=0;whiteSpace=wrap;html=1;shadow=0;dashed=0;strokeWidth=1;align=left;verticalAlign=top;fontFamily=Helvetica;fontSize=8;fontColor=#4D4D4D;fillColor=none;spacingLeft=5;strokeColor=none;spacing=0;spacingTop=-2;" vertex="1" parent="2">
                    <mxGeometry x="50" y="107.5" width="80" height="15" as="geometry"/>
                </mxCell>
                <mxCell id="7" value="Analyst" style="rounded=0;whiteSpace=wrap;html=1;shadow=0;dashed=0;strokeWidth=1;align=left;verticalAlign=top;fontFamily=Helvetica;fontSize=8;fontColor=#4D4D4D;fillColor=none;spacingLeft=5;strokeColor=none;spacing=0;spacingTop=-2;" vertex="1" parent="2">
                    <mxGeometry x="50" y="122.5" width="80" height="15" as="geometry"/>
                </mxCell>
                <mxCell id="8" value="Business" style="rounded=0;whiteSpace=wrap;html=1;shadow=0;dashed=0;strokeWidth=1;align=left;verticalAlign=top;fontFamily=Helvetica;fontSize=8;fontColor=#4D4D4D;fillColor=none;spacingLeft=5;strokeColor=none;spacing=0;spacingTop=-2;" vertex="1" parent="2">
                    <mxGeometry x="50" y="137.5" width="80" height="15" as="geometry"/>
                </mxCell>
                <mxCell id="9" value="" style="ellipse;whiteSpace=wrap;html=1;aspect=fixed;strokeColor=#660000;" vertex="1" parent="2">
                    <mxGeometry x="40" y="110" width="10" height="10" as="geometry"/>
                </mxCell>
                <mxCell id="10" value="" style="ellipse;whiteSpace=wrap;html=1;aspect=fixed;strokeColor=#660000;" vertex="1" parent="2">
                    <mxGeometry x="40" y="95" width="10" height="10" as="geometry"/>
                </mxCell>
                <mxCell id="11" value="" style="ellipse;whiteSpace=wrap;html=1;aspect=fixed;strokeColor=#660000;" vertex="1" parent="2">
                    <mxGeometry x="40" y="125" width="10" height="10" as="geometry"/>
                </mxCell>
                <mxCell id="12" value="" style="ellipse;whiteSpace=wrap;html=1;aspect=fixed;strokeColor=#660000;" vertex="1" parent="2">
                    <mxGeometry x="40" y="140" width="10" height="10" as="geometry"/>
                </mxCell>
                <mxCell id="13" value="" style="ellipse;whiteSpace=wrap;html=1;aspect=fixed;strokeColor=none;fillColor=#660000;" vertex="1" parent="2">
                    <mxGeometry x="41.5" y="111.5" width="7" height="7" as="geometry"/>
                </mxCell>
                <mxCell id="14" value="" style="shape=image;verticalLabelPosition=bottom;labelBackgroundColor=default;verticalAlign=top;aspect=fixed;imageAspect=0;image=data:image/svg+xml,PHN2ZyB4bWxucz0iaHR0cDovL3d3dy53My5vcmcvMjAwMC9zdmciIHZpZXdCb3g9IjAgMCAzODQgNTEyIj48cGF0aCBkPSJNMzQyLjYgMTUwLjZjMTIuNS0xMi41IDEyLjUtMzIuOCAwLTQ1LjNzLTMyLjgtMTIuNS00NS4zIDBMMTkyIDIxMC43IDg2LjYgMTA1LjRjLTEyLjUtMTIuNS0zMi44LTEyLjUtNDUuMyAwcy0xMi41IDMyLjggMCA0NS4zTDE0Ni43IDI1NiA0MS40IDM2MS40Yy0xMi41IDEyLjUtMTIuNSAzMi44IDAgNDUuM3MzMi44IDEyLjUgNDUuMyAwTDE5MiAzMDEuMyAyOTcuNCA0MDYuNmMxMi41IDEyLjUgMzIuOCAxMi41IDQ1LjMgMHMxMi41LTMyLjggMC00NS4zTDIzNy4zIDI1NiAzNDIuNiAxNTAuNnoiIGZpbGw9IiM2NjAwMDAiLz48L3N2Zz4=;movable=1;resizable=1;rotatable=1;deletable=1;editable=1;locked=0;connectable=1;" vertex="1" parent="2">
                    <mxGeometry x="200" y="160.00000000000045" width="18.75" height="25" as="geometry"/>
                </mxCell>
                <mxCell id="15" value="" style="shape=image;verticalLabelPosition=bottom;labelBackgroundColor=default;verticalAlign=top;aspect=fixed;imageAspect=0;image=data:image/svg+xml,PHN2ZyB4bWxucz0iaHR0cDovL3d3dy53My5vcmcvMjAwMC9zdmciIHZpZXdCb3g9IjAgMCA0NDggNTEyIj48cGF0aCBkPSJNNDM4LjYgMTA1LjRjMTIuNSAxMi41IDEyLjUgMzIuOCAwIDQ1LjNsLTI1NiAyNTZjLTEyLjUgMTIuNS0zMi44IDEyLjUtNDUuMyAwbC0xMjgtMTI4Yy0xMi41LTEyLjUtMTIuNS0zMi44IDAtNDUuM3MzMi44LTEyLjUgNDUuMyAwTDE2MCAzMzguNyAzOTMuNCAxMDUuNGMxMi41LTEyLjUgMzIuOC0xMi41IDQ1LjMgMHoiIGZpbGw9IiM2NjAwMDAiLz48L3N2Zz4=;movable=1;resizable=1;rotatable=1;deletable=1;editable=1;locked=0;connectable=1;" vertex="1" parent="2">
                    <mxGeometry x="230.6199999999999" y="160" width="21.88" height="25" as="geometry"/>
                </mxCell>
            </root>
        </mxGraphModel>
    </diagram>
</mxfile>